<svg xmlns="http://www.w3.org/2000/svg" width="1050" height="280" viewBox="0 0 1050 280" role="img" aria-labelledby="title desc">
<title id="title">De fem trianguleringene av en femkant</title>
<desc id="desc">Fem regulære femkanter med de fem forskjellige trianguleringene.</desc>
<rect width="1050" height="280" fill="white"/>
<polygon points="110.0,55.0 186.1,110.3 157.0,199.7 63.0,199.7 33.9,110.3" fill="none" stroke="#374151" stroke-width="3" stroke-linejoin="round"/>
<line x1="110.0" y1="55.0" x2="157.0" y2="199.7" stroke="#111827" stroke-width="3"/>
<line x1="110.0" y1="55.0" x2="63.0" y2="199.7" stroke="#111827" stroke-width="3"/>
<polygon points="315.0,55.0 391.1,110.3 362.0,199.7 268.0,199.7 238.9,110.3" fill="none" stroke="#374151" stroke-width="3" stroke-linejoin="round"/>
<line x1="391.1" y1="110.3" x2="268.0" y2="199.7" stroke="#111827" stroke-width="3"/>
<line x1="391.1" y1="110.3" x2="238.9" y2="110.3" stroke="#111827" stroke-width="3"/>
<polygon points="520.0,55.0 596.1,110.3 567.0,199.7 473.0,199.7 443.9,110.3" fill="none" stroke="#374151" stroke-width="3" stroke-linejoin="round"/>
<line x1="567.0" y1="199.7" x2="443.9" y2="110.3" stroke="#111827" stroke-width="3"/>
<line x1="567.0" y1="199.7" x2="520.0" y2="55.0" stroke="#111827" stroke-width="3"/>
<polygon points="725.0,55.0 801.1,110.3 772.0,199.7 678.0,199.7 648.9,110.3" fill="none" stroke="#374151" stroke-width="3" stroke-linejoin="round"/>
<line x1="678.0" y1="199.7" x2="725.0" y2="55.0" stroke="#111827" stroke-width="3"/>
<line x1="678.0" y1="199.7" x2="801.1" y2="110.3" stroke="#111827" stroke-width="3"/>
<polygon points="930.0,55.0 1006.1,110.3 977.0,199.7 883.0,199.7 853.9,110.3" fill="none" stroke="#374151" stroke-width="3" stroke-linejoin="round"/>
<line x1="853.9" y1="110.3" x2="930.0" y2="55.0" stroke="#111827" stroke-width="3"/>
<line x1="853.9" y1="110.3" x2="977.0" y2="199.7" stroke="#111827" stroke-width="3"/>
</svg>
